Coordinates
version=1
nRows=32
nColumns=22
inDegrees=yes

Units are S.I. units (second, meters, Newtons, ...)
If the header above contains a line with 'inDegrees', this indicates whether rotational values are in degrees (yes) or radians (no).

endheader
time	pelvis_tilt	pelvis_list	pelvis_rotation	pelvis_tx	pelvis_ty	pelvis_tz	hip_flexion_r	hip_adduction_r	hip_rotation_r	knee_angle_r	ankle_angle_r	subtalar_angle_r	hip_flexion_l	hip_adduction_l	hip_rotation_l	knee_angle_l	ankle_angle_l	subtalar_angle_l	lumbar_extension	lumbar_bending	lumbar_rotation
      0.01000000	     -2.89894590	     -3.79076921	     -3.79639106	     -1.17808068	      0.95477050	      0.01968318	     11.18103580	      4.41865304	     -1.71492310	    -20.41633990	     11.56987887	     -3.08579792	     12.46442927	     -7.26908260	     -9.51237033	    -25.75366888	     13.45369350	     -3.91415971	     -4.64767699	      1.53935029	      1.15987695
      0.02000000	     -2.89915079	     -3.79000076	     -3.78896401	     -1.17798508	      0.95476328	      0.01967076	     11.17724814	      4.41963437	     -1.71399710	    -20.42329668	     11.57073950	     -3.08595230	     12.46031946	     -7.26772385	     -9.51276902	    -25.75490027	     13.45341123	     -3.91423403	     -4.64152179	      1.54116331	      1.16049967
      0.03000000	     -2.89851730	     -3.78929299	     -3.77920393	     -1.17787156	      0.95475534	      0.01965219	     11.17336478	      4.41983175	     -1.71396644	    -20.43402827	     11.57138238	     -3.08586271	     12.45432548	     -7.26592672	     -9.51257105	    -25.75552691	     13.45375515	     -3.91435615	     -4.63474608	      1.54394945	      1.16033769
      0.04000000	     -2.88796202	     -3.78820004	     -3.76146710	     -1.17777128	      0.95475325	      0.01961428	     11.17921384	      4.41430935	     -1.73732488	    -20.48024724	     11.57976276	     -3.08261578	     12.43299201	     -7.25767978	     -9.49447211	    -25.74175163	     13.46276742	     -3.91630924	     -4.64534061	      1.54832523	      1.13936213
      0.05000000	     -2.88659313	     -3.78637064	     -3.75243527	     -1.17763049	      0.95474182	      0.01959247	     11.17187354	      4.41171881	     -1.73787789	    -20.48757436	     11.57988457	     -3.08196422	     12.42706108	     -7.25454676	     -9.49282997	    -25.74723148	     13.46336803	     -3.91651784	     -4.63575573	      1.55143807	      1.14043958
      0.06000000	     -2.86080928	     -3.77849066	     -3.70421235	     -1.17749340	      0.95475726	      0.01948836	     11.14366003	      4.38615495	     -1.80661992	    -20.50299966	     11.60600830	     -3.06079653	     12.40141884	     -7.22555224	     -9.42420157	    -25.74733909	     13.48152779	     -3.92144823	     -4.65750902	      1.55042950	      1.09610392
      0.07000000	     -2.85880342	     -3.77794238	     -3.69534350	     -1.17735212	      0.95474280	      0.01946707	     11.13706790	      4.38470561	     -1.80351602	    -20.51128624	     11.60538537	     -3.06018985	     12.39597250	     -7.22371870	     -9.42328298	    -25.75361793	     13.48105395	     -3.92146719	     -4.64849768	      1.55516565	      1.09670836
      0.08000000	     -2.84236411	     -3.78149076	     -3.67255159	     -1.17725672	      0.95473833	      0.01941781	     11.12379717	      4.38508838	     -1.79672519	    -20.53239022	     11.61231527	     -3.05506595	     12.39255375	     -7.22081723	     -9.39224740	    -25.78104254	     13.48492129	     -3.92386288	     -4.66573831	      1.56549223	      1.07827538
      0.09000000	     -2.83961895	     -3.78145832	     -3.66501623	     -1.17711154	      0.95472484	      0.01939069	     11.11531120	      4.38277228	     -1.79576802	    -20.53881727	     11.61298023	     -3.05466068	     12.38706430	     -7.21846110	     -9.38907817	    -25.78849867	     13.48530228	     -3.92417891	     -4.65532547	      1.57170067	      1.07847603
      0.10000000	     -2.81448438	     -3.79199843	     -3.63023580	     -1.17702616	      0.95472557	      0.01931754	     11.08512054	      4.38681708	     -1.80842055	    -20.54701822	     11.63522215	     -3.05131400	     12.38743866	     -7.21675326	     -9.32612199	    -25.83455543	     13.49896726	     -3.93126588	     -4.68447748	      1.58919158	      1.05362296
      0.11000000	     -2.81179001	     -3.79264463	     -3.62368960	     -1.17688802	      0.95471311	      0.01928634	     11.07659303	      4.38500587	     -1.80887016	    -20.55327681	     11.63544314	     -3.05119557	     12.38167696	     -7.21449736	     -9.32361150	    -25.84011240	     13.49930163	     -3.93164118	     -4.67350650	      1.59618717	      1.05312810
      0.12000000	     -2.78042060	     -3.81211252	     -3.58518059	     -1.17680670	      0.95472671	      0.01920277	     11.03960190	      4.39535219	     -1.84317756	    -20.56168489	     11.65662834	     -3.05156045	     12.37293030	     -7.21963717	     -9.25065566	    -25.88100541	     13.51636554	     -3.94225853	     -4.71046845	      1.62486789	      1.02454020
      0.13000000	     -2.77870703	     -3.81290219	     -3.58000082	     -1.17668096	      0.95471798	      0.01917094	     11.03156219	      4.39408970	     -1.84382369	    -20.56661782	     11.65605116	     -3.05160344	     12.36731704	     -7.21723859	     -9.24952971	    -25.88499893	     13.51656351	     -3.94263122	     -4.70022136	      1.63012767	      1.02427962
      0.14000000	     -2.74795731	     -3.83122577	     -3.54912625	     -1.17657850	      0.95474939	      0.01910270	     10.98974091	      4.40364820	     -1.88342566	    -20.56654794	     11.66486361	     -3.05470735	     12.34085244	     -7.22234662	     -9.19236768	    -25.89880159	     13.53295502	     -3.95444194	     -4.73134425	      1.65436962	      1.00331640
      0.15000000	     -2.74676339	     -3.83129150	     -3.54555083	     -1.17648356	      0.95474664	      0.01906438	     10.98403804	      4.40130342	     -1.88266330	    -20.57038242	     11.66426105	     -3.05483645	     12.33660061	     -7.21908980	     -9.19265933	    -25.90183954	     13.53274752	     -3.95461791	     -4.72468777	      1.66024493	      1.00387255
      0.16000000	     -2.74525409	     -3.83182740	     -3.54217722	     -1.17639409	      0.95474739	      0.01903054	     10.97852043	      4.39967198	     -1.88218124	    -20.57507369	     11.66421667	     -3.05504348	     12.33145267	     -7.21670210	     -9.19161180	    -25.90460888	     13.53288825	     -3.95490723	     -4.71932676	      1.66527056	      1.00501195
      0.17000000	     -2.74366861	     -3.83267831	     -3.53942364	     -1.17631171	      0.95475130	      0.01899703	     10.97341757	      4.39848253	     -1.88210064	    -20.58000237	     11.66472175	     -3.05528200	     12.32578460	     -7.21444043	     -9.18990938	    -25.90629460	     13.53333458	     -3.95523015	     -4.71499307	      1.67046143	      1.00665320
      0.18000000	     -2.74224660	     -3.83387160	     -3.53749158	     -1.17623262	      0.95475920	      0.01896245	     10.96858822	      4.39719419	     -1.88259250	    -20.58476406	     11.66582843	     -3.05551951	     12.31916625	     -7.21259981	     -9.18764618	    -25.90659260	     13.53412242	     -3.95557905	     -4.71121695	      1.67619651	      1.00866780
      0.19000000	     -2.70543499	     -3.84146670	     -3.52804974	     -1.17613600	      0.95482235	      0.01891221	     10.91780107	      4.39644501	     -1.90640692	    -20.57655187	     11.68065846	     -3.05419932	     12.26297873	     -7.20896062	     -9.16440682	    -25.88651813	     13.55411243	     -3.96416840	     -4.74993809	      1.68671577	      1.01213218
      0.20000000	     -2.70611592	     -3.84182088	     -3.52816447	     -1.17606257	      0.95482725	      0.01888398	     10.91474832	      4.39494299	     -1.90573190	    -20.57878504	     11.68021414	     -3.05405332	     12.25931561	     -7.20720960	     -9.16515199	    -25.88765530	     13.55304259	     -3.96384471	     -4.74422240	      1.69160558	      1.01155206
      0.21000000	     -2.70743580	     -3.84260655	     -3.52886312	     -1.17599324	      0.95483090	      0.01884966	     10.91211286	      4.39281831	     -1.90556070	    -20.57943517	     11.68005924	     -3.05379651	     12.25619296	     -7.20565001	     -9.16580389	    -25.88806736	     13.55227141	     -3.96353161	     -4.73875502	      1.69782962	      1.01079012
      0.22000000	     -2.70940390	     -3.84372960	     -3.53021328	     -1.17592612	      0.95483226	      0.01881239	     10.90938672	      4.39082787	     -1.90613419	    -20.57799960	     11.68010097	     -3.05335942	     12.25385359	     -7.20401215	     -9.16634404	    -25.88837576	     13.55187599	     -3.96328143	     -4.73304092	      1.70542769	      1.00924415
      0.23000000	     -2.71230048	     -3.84537592	     -3.53185443	     -1.17586122	      0.95483101	      0.01876924	     10.90614191	      4.38905893	     -1.90763495	    -20.57319690	     11.68034018	     -3.05263404	     12.25278613	     -7.20250111	     -9.16669628	    -25.88912432	     13.55208636	     -3.96319243	     -4.72693544	      1.71498562	      1.00606236
      0.24000000	     -2.72331513	     -3.87163857	     -3.51159017	     -1.17579974	      0.95481635	      0.01871386	     10.89326150	      4.41270760	     -1.92723562	    -20.53708605	     11.67236821	     -3.03999364	     12.27403650	     -7.22693132	     -9.14268631	    -25.90598840	     13.56356873	     -3.96554256	     -4.71387849	      1.75182274	      0.97256239
      0.25000000	     -2.72492073	     -3.87162305	     -3.51372800	     -1.17574403	      0.95481195	      0.01866540	     10.89076977	      4.40816874	     -1.92759647	    -20.53548198	     11.67236558	     -3.03968996	     12.27333333	     -7.22367659	     -9.14279602	    -25.90867252	     13.56403235	     -3.96559566	     -4.71097110	      1.75986741	      0.97106429
      0.26000000	     -2.72721889	     -3.87183069	     -3.51595258	     -1.17569415	      0.95480566	      0.01861199	     10.88768202	      4.40399598	     -1.92819078	    -20.53050663	     11.67288783	     -3.03928748	     12.27397437	     -7.22000860	     -9.14303330	    -25.91156109	     13.56510411	     -3.96587348	     -4.70908050	      1.76881300	      0.96736261
      0.27000000	     -2.73009267	     -3.89119284	     -3.49132477	     -1.17563267	      0.95479689	      0.01852974	     10.86389797	      4.41778844	     -1.94692004	    -20.49083514	     11.67567848	     -3.03037510	     12.28667121	     -7.23355496	     -9.11539601	    -25.92762048	     13.58139877	     -3.97131160	     -4.70588715	      1.79981356	      0.92255656
      0.28000000	     -2.73170001	     -3.89102829	     -3.49302293	     -1.17558497	      0.95478986	      0.01846736	     10.86138477	      4.41279642	     -1.94700503	    -20.48941270	     11.67557674	     -3.03015765	     12.28647626	     -7.22892553	     -9.11619800	    -25.92966610	     13.58176390	     -3.97139412	     -4.70497256	      1.80884668	      0.92100812
      0.29000000	     -2.73359284	     -3.89091072	     -3.49397494	     -1.17554279	      0.95478379	      0.01839584	     10.85864912	      4.40788091	     -1.94724332	    -20.48636626	     11.67604250	     -3.02988531	     12.28640058	     -7.22381597	     -9.11748547	    -25.93116417	     13.58273233	     -3.97169196	     -4.70474570	      1.81866144	      0.91724061
      0.30000000	     -2.73393880	     -3.89254630	     -3.48243728	     -1.17548105	      0.95478423	      0.01831175	     10.84236623	      4.40332566	     -1.95757119	    -20.46536963	     11.68219794	     -3.02691592	     12.28459314	     -7.22049467	     -9.11905169	    -25.92939767	     13.59339885	     -3.97585153	     -4.70287035	      1.82981276	      0.88104034
      0.31000000	     -2.73501589	     -3.89291352	     -3.48132131	     -1.17544579	      0.95478321	      0.01822872	     10.84051526	      4.39917029	     -1.95805409	    -20.46627415	     11.68254668	     -3.02677109	     12.28387117	     -7.21484564	     -9.11925085	    -25.92985123	     13.59366917	     -3.97596620	     -4.70401979	      1.84014419	      0.88063454
      0.32000000	     -2.73615829	     -3.89312072	     -3.48022080	     -1.17541377	      0.95478376	      0.01813902	     10.83897166	      4.39410645	     -1.95911759	    -20.46703689	     11.68324497	     -3.02664436	     12.28265163	     -7.20906567	     -9.12010474	    -25.92890431	     13.59433642	     -3.97620619	     -4.70549488	      1.85120541	      0.87817291
